<svg xmlns="http://www.w3.org/2000/svg" width="262" height="135" fill="none" viewBox="0 0 262 135">
    <g opacity=".2">
        <path stroke="#fff" stroke-width=".5" d="M255.952 84.544v0h.006c.986-.026 1.96.228 2.808.73.849.504 1.539 1.236 1.99 2.114.45.877.644 1.864.559 2.847-.085.983-.446 1.921-1.041 2.708v.001l-30.779 39.965-20.946-25.854 16.444-22.51h30.959zM205.799 28.091l18.655-25.998 35.177 41.422c.6.783.97 1.718 1.069 2.699.1.983-.077 1.975-.509 2.864-.432.888-1.104 1.639-1.939 2.168-.834.528-1.8.814-2.787.825h-30.882l-18.784-23.98zM33.742.396v31.821c-3.32 4.693-6.268 8.678-8.83 12.132l-.383.518c-2.406 3.245-4.462 6.017-6.15 8.463-3.55 5.145-5.51 8.898-5.68 12.655-.17 3.764 1.458 7.478 4.93 12.54 2.62 3.82 6.31 8.435 11.118 14.447 1.549 1.937 3.213 4.019 4.995 6.266v35.367L7.537 122.179s0 0 0 0c-2.176-1.053-4.011-2.694-5.3-4.738C.95 115.396.262 113.032.25 110.615v-86.39c.046-2.377.752-4.694 2.038-6.693 1.286-2 3.103-3.603 5.248-4.63 0 0 0 0 0 0L33.742.396z"/>
        <mask id="joqdy42qha" fill="#fff">
            <path d="M155.185 41.743c1.056-1.196 1.734-2.678 1.948-4.26.215-1.58-.045-3.19-.744-4.624-.7-1.434-1.809-2.629-3.187-3.433-1.378-.804-2.964-1.182-4.557-1.086l-23.738 30.601c-1.807 2.304-2.789 5.147-2.789 8.075 0 2.927.982 5.77 2.789 8.074l36.011 46.022c.831 1.221 1.331 2.635 1.454 4.107.122 1.471-.138 2.949-.756 4.289-.618 1.341-1.571 2.5-2.769 3.363-1.198.863-2.598 1.402-4.065 1.564h-.566L106.66 73.636c-1.494-1.883-2.306-4.217-2.306-6.62 0-2.404.812-4.738 2.306-6.621l14.452-18.652c1.056-1.196 1.734-2.678 1.948-4.26.215-1.58-.044-3.19-.744-4.624-.7-1.434-1.809-2.629-3.187-3.433-1.378-.804-2.964-1.182-4.557-1.086L90.915 58.86c-1.807 2.304-2.79 5.147-2.79 8.075 0 2.927.983 5.77 2.79 8.074l36.011 46.588c.72 1.279 1.108 2.719 1.13 4.187.021 1.468-.325 2.918-1.007 4.218-.682 1.3-1.679 2.409-2.899 3.226-1.22.816-2.625 1.314-4.087 1.449l-47.396-61.04c-1.493-1.884-2.306-4.218-2.306-6.621 0-2.404.813-4.738 2.306-6.621l14.534-18.652c1.05-1.19 1.725-2.665 1.942-4.238.216-1.573-.036-3.175-.726-4.606-.69-1.43-1.785-2.626-3.15-3.437-1.365-.81-2.94-1.2-4.525-1.122L58.214 57.084c-2.212 2.838-3.414 6.333-3.414 9.932 0 3.598 1.202 7.093 3.415 9.93l37.787 48.446c.679.867 1.101 1.908 1.219 3.003.118 1.095-.074 2.202-.553 3.194-.48.992-1.227 1.83-2.158 2.419-.931.588-2.009.904-3.11.911H69.356l-47.96-61.606c-1.377-1.841-2.12-4.079-2.12-6.378 0-2.3.743-4.537 2.12-6.379L65.157 0h152.844l-41.178 57.246c-2.077 2.788-3.199 6.172-3.199 9.648 0 3.477 1.122 6.861 3.199 9.65l45.377 58.295h-33.912l-47.637-61.283c-1.454-1.87-2.243-4.172-2.243-6.54 0-2.37.789-4.67 2.243-6.54l14.533-18.733z"/>
        </mask>
        <path fill="#fff" d="M155.185 41.743l-.375-.33-.01.011-.01.013.395.306zm-6.54-13.403l-.03-.499-.226.014-.139.179.395.306zm-23.738 30.601l.394.309.001-.002-.395-.307zm0 16.149l.394-.308h-.001l-.393.308zm36.011 46.022l.413-.281-.009-.014-.01-.013-.394.308zm-6.136 13.323v.5h.027l.027-.003-.054-.497zm-.566 0l-.393.308.15.192h.243v-.5zM106.66 73.636l.393-.308-.002-.002-.391.31zm0-13.241l.391.31.004-.004-.395-.306zm14.452-18.652l-.375-.33-.01.012-.01.012.395.306zm-6.54-13.403l-.03-.499-.226.014-.139.179.395.306zM90.915 58.86l.393.31.002-.003-.395-.306zm-2.79 8.075h.5-.5zm2.79 8.074l.395-.306-.002-.003-.393.309zm36.011 46.588l.435-.245-.017-.032-.023-.029-.395.306zm-6.863 13.08l-.395.307.168.216.272-.025-.045-.498zm-47.396-61.04l.395-.307-.003-.004-.392.31zm0-13.242l.392.31.003-.003-.395-.307zm14.534-18.652l-.375-.33-.01.011-.01.012.395.307zM80.74 28.34l-.025-.5-.227.012-.141.18.394.308zM58.216 57.084l-.394-.308.394.308zm0 19.863l-.395.307.395-.307zm37.787 48.445l-.395.307v.001l.395-.308zm-4.603 9.527v.5h.004l-.004-.5zm-22.042 0l-.395.307.15.193h.245v-.5zm-47.96-61.606l-.401.3.006.008.394-.308zm-2.12-6.378h.5-.5zm2.12-6.379l.4.3.005-.007-.406-.293zM65.157 0v-.5h-.255l-.15.207.405.293zm152.844 0l.406.292.57-.792h-.976V0zm-41.178 57.246l.401.299.005-.007-.406-.292zm0 19.297l-.401.299.006.008.395-.307zm45.377 58.296v.5h1.023l-.629-.808-.394.308zm-33.912 0l-.394.306.15.194h.244v-.5zm-47.637-61.283l-.395.306.395-.306zm0-13.08l.395.306-.395-.306zm14.908-18.402c1.122-1.27 1.841-2.844 2.069-4.523l-.991-.135c-.201 1.484-.837 2.874-1.828 3.997l.75.661zm2.069-4.523c.227-1.68-.048-3.388-.791-4.911l-.899.438c.657 1.345.9 2.855.699 4.338l.991.135zm-.791-4.911c-.743-1.523-1.921-2.792-3.384-3.646l-.504.864c1.293.754 2.333 1.875 2.989 3.22l.899-.438zm-3.384-3.646c-1.464-.854-3.148-1.255-4.839-1.153l.06.998c1.494-.09 2.982.265 4.275 1.019l.504-.864zm-5.204-.96l-23.738 30.6.79.614 23.738-30.601-.79-.613zm-23.736 30.599c-1.877 2.391-2.896 5.343-2.896 8.383h1c0-2.816.944-5.55 2.682-7.766l-.786-.617zm-2.896 8.383c0 3.04 1.019 5.99 2.896 8.382l.786-.617c-1.738-2.215-2.682-4.95-2.682-7.765h-1zm2.895 8.382l36.011 46.023.788-.617-36.011-46.022-.788.616zm35.992 45.996c.782 1.149 1.253 2.481 1.368 3.866l.997-.083c-.13-1.557-.66-3.054-1.539-4.346l-.826.563zm1.368 3.866c.116 1.385-.13 2.777-.711 4.039l.908.419c.654-1.42.929-2.984.8-4.541l-.997.083zm-.711 4.039c-.582 1.263-1.48 2.353-2.607 3.166l.584.811c1.268-.913 2.278-2.139 2.931-3.558l-.908-.419zm-2.607 3.166c-1.128.813-2.447 1.32-3.828 1.473l.109.994c1.553-.172 3.036-.742 4.303-1.656l-.584-.811zm-3.773 1.47h-.566v1h.566v-1zm-.172.192l-47.557-60.799-.787.616 47.557 60.799.787-.616zm-47.559-60.801c-1.423-1.796-2.197-4.02-2.197-6.31h-1c0 2.516.85 4.959 2.414 6.931l.783-.621zm-2.197-6.31c0-2.291.774-4.515 2.197-6.31l-.783-.622c-1.564 1.972-2.414 4.415-2.414 6.932h1zm2.201-6.315l14.452-18.651-.79-.613-14.453 18.652.791.612zm14.432-18.627c1.122-1.27 1.841-2.844 2.069-4.523l-.991-.135c-.201 1.484-.837 2.874-1.828 3.997l.75.661zm2.069-4.523c.227-1.68-.048-3.388-.791-4.911l-.899.438c.657 1.345.9 2.855.699 4.338l.991.135zm-.791-4.911c-.743-1.523-1.921-2.792-3.384-3.646l-.504.864c1.293.754 2.333 1.875 2.989 3.22l.899-.438zm-3.384-3.646c-1.464-.854-3.148-1.255-4.839-1.153l.06.998c1.495-.09 2.982.265 4.275 1.019l.504-.864zm-5.204-.96L90.52 58.554l.79.613 23.657-30.52-.79-.613zM90.521 58.552c-1.876 2.391-2.896 5.343-2.896 8.383h1c0-2.816.945-5.55 2.683-7.766l-.787-.617zm-2.896 8.383c0 3.04 1.02 5.991 2.897 8.383l.786-.618c-1.738-2.215-2.683-4.95-2.683-7.765h-1zm38.865 54.907c.679 1.207 1.046 2.565 1.066 3.949l1-.014c-.023-1.552-.434-3.073-1.195-4.425l-.871.49zm1.066 3.949c.02 1.385-.306 2.753-.95 3.979l.886.465c.721-1.374 1.087-2.907 1.064-4.458l-1 .014zm-.95 3.979c-.643 1.226-1.583 2.272-2.734 3.042l.556.831c1.29-.863 2.343-2.034 3.064-3.408l-.886-.465zm-2.734 3.042c-1.151.77-2.476 1.24-3.855 1.367l.091.996c1.546-.142 3.031-.669 4.32-1.532l-.556-.831zm-3.414 1.558L73.062 73.33l-.79.613 47.396 61.041.79-.614zM73.059 73.326c-1.423-1.796-2.198-4.02-2.198-6.31h-1c0 2.516.851 4.959 2.414 6.931l.784-.621zm-2.198-6.31c0-2.291.775-4.515 2.198-6.31l-.784-.622c-1.563 1.972-2.414 4.415-2.414 6.932h1zm2.2-6.314l14.534-18.651-.789-.615-14.533 18.651.789.615zm14.515-18.628c1.115-1.265 1.832-2.83 2.062-4.501l-.99-.136c-.204 1.475-.837 2.858-1.822 3.976l.75.661zm2.062-4.501c.23-1.67-.038-3.372-.77-4.891l-.901.434c.647 1.342.883 2.845.68 4.32l.991.137zm-.77-4.891c-.732-1.519-1.896-2.789-3.346-3.65l-.51.86c1.28.76 2.308 1.882 2.955 3.224l.9-.434zm-3.346-3.65c-1.45-.86-3.121-1.275-4.806-1.191l.05.999c1.488-.075 2.965.292 4.245 1.052l.511-.86zm-5.174-1L57.82 56.776l.787.617 22.527-28.744-.787-.617zM57.82 56.777c-2.281 2.925-3.52 6.529-3.52 10.239h1c0-3.488 1.164-6.875 3.309-9.624l-.789-.615zM54.3 67.016c0 3.71 1.239 7.313 3.52 10.238l.789-.615c-2.145-2.75-3.31-6.136-3.31-9.623h-1zm3.52 10.238L95.607 125.7l.789-.615-37.787-48.445-.789.615zM95.608 125.7c.621.794 1.008 1.746 1.116 2.749l.994-.107c-.128-1.189-.586-2.317-1.323-3.258l-.787.616zm1.116 2.749c.108 1.002-.068 2.015-.506 2.923l.9.434c.52-1.076.728-2.276.6-3.464l-.994.107zm-.506 2.923c-.439.907-1.123 1.674-1.975 2.213l.534.845c1.01-.638 1.821-1.547 2.341-2.624l-.9-.434zm-1.975 2.213c-.852.539-1.839.828-2.847.834l.007 1c1.195-.008 2.364-.35 3.374-.989l-.534-.845zm-2.844.834H69.357v1h22.042v-1zm-21.648.193l-47.96-61.606-.79.615 47.961 61.605.79-.614zM21.797 73.014c-1.312-1.755-2.02-3.888-2.02-6.08h-1c0 2.408.778 4.75 2.219 6.679l.8-.599zm-2.02-6.08c0-2.19.708-4.323 2.02-6.078l-.801-.599c-1.44 1.928-2.22 4.27-2.22 6.678h1zm2.025-6.085L65.564.293l-.81-.586L20.99 60.263l.81.586zM65.158.5h152.844v-1H65.158v1zm152.438-.792l-41.178 57.246.812.584L218.408.292l-.812-.584zm-41.173 57.24c-2.142 2.873-3.298 6.362-3.298 9.946h1c0-3.369 1.087-6.648 3.1-9.35l-.802-.597zm-3.298 9.946c0 3.585 1.156 7.074 3.298 9.948l.802-.598c-2.013-2.701-3.1-5.98-3.1-9.35h-1zm3.304 9.956l45.377 58.296.789-.615-45.376-58.295-.79.614zm45.772 57.489h-33.912v1h33.912v-1zm-33.517.193l-47.637-61.283-.79.614 47.638 61.282.789-.613zm-47.637-61.283c-1.386-1.783-2.138-3.976-2.138-6.233h-1c0 2.48.826 4.888 2.348 6.846l.79-.613zm-2.138-6.233c0-2.258.752-4.451 2.138-6.234l-.79-.613c-1.522 1.958-2.348 4.367-2.348 6.847h1zm2.138-6.234L155.58 42.05l-.79-.613-14.533 18.732.79.613zM90.519 75.315l36.011 46.588.791-.612-36.01-46.588-.792.612z" mask="url(#joqdy42qha)"/>
    </g>
</svg>
